<svg xmlns="http://www.w3.org/2000/svg" width="525" height="475" viewBox="0 0 2048 1852"><path fill="#006fee" d="m1264 665 4 2 9 12 9 10 8 9 6 10 12 13 12 16 11 13 11 14 9 11 8 10 11 13 9 12 10 13v2l-11-2-33-8-36-10-5-3-2-5h-2l-6 7h-2v7l1 3 1 19 4 18 7 16 8 13 11 13 15 12 14 8 17 8 13 5 16 4 7 1h24l21-6 13-7 12-8 7-6 8-13 7-14 3-13 1-11-24-8-38-9-33-7-8-2 1-4 7-13 10-10 1-2h2l2-4 11-14 10-11 7-9 11-13 7-9 13-15 13-17 10-11 7-8 6-8 8-12 4-1 34 18 18 8 16 8 22 12 19 9 14 8 16 11 17 9 12 9 12 12 7 10 14 25 8 16 11 25 11 27 11 28 12 39 11 34 8 29v8l-13 7-37 12-20 8-28 10-39 10-27 10-1 10-1 31v12l-3 57v48l5 111 5 79 4 46 4 25 4 5 1 4v50l-3 5-10 8-16 10-19 10-15 6-40 12-27 6-23 4-25 3-61 3h-58l-46-2-33-4-33-6-24-6-38-11-18-8-17-9-13-8-10-6-6-6-1-5v-42l1-12 3-4 4-23 12-125 4-58 3-72 1-14v-21l-2-37v-23l-1-48-21-7-16-4-17-5-24-9-29-11-32-11-24-11-1-1 1-7 18-55 8-28 13-35 10-24 8-21 12-24 13-23 7-12 8-9 9-11 9-8 20-9 11-8 21-12 18-8 18-10 25-13 15-6 21-11zm33 261-2 7 1 25 1 63 1 1 7-1v-79l35 9 22 6 1 1 1 51 1 3h5l2-2v-51l18 5 27 5 49 10 27 5 1 1 1 19 1 61 1 1h5l2-2v-47l-1-34h2l1-2v-6l-5-3-16-4-25-5-52-12-41-10-23-4-44-11zm0 112-2 4v9l9 3 35 9 28 7 1 1 1 25 3 15 8 23 10 13 10 10 11 7 18 6 4 1h19l14-4 12-5 8-6 7-8 7-11 4-8 3-16v-10l-1-13-2-6-13-3-24-4-33-8-39-9-24-6-27-5-28-7-15-4zm49 126-17 1-12 3-12 6-8 7-3 7-1 6v14l2 14 5 12 8 10 9 10 15 11 13 8 8 4 23 9 25 8 36 9 8 1h38l10-3 10-7 6-7 4-9-1-7-4-1-5 4v-17l-3-12-10-21-11-12-11-9-11-8-15-8-21-8-22-7-24-6-7-1zm-49 126-3 7 1 5 8 4 26 7 32 8h2l-3 9-12 16-8 6-12 5-11 2-24 2-4 4v6l3 5 4 2h9l16-3 16-6 10-6 10-9 7-11 2-6h2v11l4 18 7 19 5 8 9 10 11 10 9 5 18 4 14 1 15-2 13-4 8-5 9-8 7-12 1 1v62l-11-4-24-6-24-4-35-8-53-13-27-5-25-6-4 2-1 7 2 4 16 5 54 14 45 9 43 10 39 7 4 1v49l-1 38-32 3-29 2-37 1-42-1-41-3-19-1-28-4-27-6-36-11-8-3-15-5-23-12-13-10-10-6h-2l-3 13-1 6v8l4 14 7 9 10 7 32 16 15 6 20 7 55 11 36 5 44 4 28 2h39l39-3 35-4 36-6 43-9 19-6 25-12 22-12 9-7 2-3 1-15-1-26-2-2-6 4-10 8-16 9-16 7-33 12-27 7-22 4-14 2 1-5 1-33v-125l-2-5-1-1 1-7 2-13v-12l-1-13-1-4-4-2-33-6-31-7-41-10-40-9-55-13zM183 1507l9 1 31 6 42 6 49 4 93 4 34 3 20 4 37 11 34 9 34 4 42 3h20l128-7 40-4 17-3h7l2 1-1 5-9 9-11 9-20 13-20 6-21 6-20 4-36 4-24 2h-13l-27-2-76-3-60-2-71-3-45-2-121-4-31-4-13-3-14-7-7-7-10-15 9-45zM828 527l4 2 8 10 11 12 8 8 11 9 8 8 8 7 13 11 17 13 16 12 17 11 17 10 23 15 14 6 16 8 27 13 47 15 3 2-2 4-23 10-19 5-29 7-27 4-14 1h-17l-32-3-29-6-21-5-13-4-24-11-14-9-12-6-9-5-10-9-11-8-11-9-20-20-9-11-12-16 2-4 8-7 9-11 13-13 8-7 17-14 16-13 15-10zM939 154l4 1 5 12 6 21 9 38 5 27 2 20-5 3-38 9-29 8-21 6-26 11-22 10-16 6-11 7-16 9-12 8-10 5-18 13-16 11-11 9-14 12-15 13-3 2-1-3 3-15 3-17 7-30 5-13 7-16 10-18 7-14 8-12 8-10 7-8 8-11 10-10 8-7 4-2 2-4 5-5 11-9 10-6 9-7 20-12 9-4 29-12 27-9 22-5zM1143 209l4 2 11 10 8 7 10 9 13 14 7 8 11 14 9 15 10 15 8 16 13 35 6 19 5 23 3 25 1 14v14l-3 33-5 26-12 36-6 14-2 4-17-4-38-11-25-9-28-13-5-3 2-11 4-17 11-35 8-34 3-19 3-44 1-16v-43l-4-56-4-25-2-7zM988 154h11l19 2 20 4 26 8 20 8 6 5 4 13 9 40 6 36 3 33v42l-3 34-4 27-5 26-8 37-6 20-5 11-5-1-18-11-15-11-13-11-9-7-10-9-9-9-4-6 4-18 5-21 2-15 4-50v-36l-4-51-4-30-10-36-7-21zM967 320l4 1 1 6-1 19-4 31-6 28-5 16-3 3-8 3-35 10-15 6-25 12-8 5-17 6-16 11-25 15-14 10-15 12-11 8-10 9-12 11-16 14-8 11-3 2-7-14-7-16-5-19-6-26-1-7v-11l10-13 15-14 15-15 8-6 12-10 8-7 15-10 11-8 15-10 12-7 16-8 22-12 12-5 15-5 28-11 32-10 23-4zM961 465h6l8 7 8 10 7 7 9 6 11 10 13 10 17 11 15 10 11 7 6 4 15 6 18 10 18 8 25 9 19 7 23 8 19 6 1 4-7 11-9 11-10 9-7 10-14 13-9 5-3 3-16-2-36-8-33-13-22-10-19-8-15-8-9-6-22-12-19-13-9-7-11-8-10-8-11-8-13-12-8-7-7-7-6-5-7-8-10-10 1-4 18-10 16-6 28-12zM450 1390h11l24 7 41 16 24 11 20 8 15 9v2l-10 6-11 10-30 24-7 9-12 14-9 13-5 7-6-1-40-10-21-4-15-2-98-5-31-2-13-2-4-6-4-20-7-21-8-17 1-3h6l8 4 15 3 25 4 10-1 32-5 29-10 16-9 16-8 9-7 16-9z"/><path fill="#006fee" d="M1340 1179h14l24 3 19 4 22 6 24 10 18 10 12 9 7 6 7 9 6 12 4 15 2 12 1 2-4 5-9 5-17 3h-10l-24-3-26-6-31-9-22-9-19-10-10-7-9-7-8-8-9-14-2-6v-17l9-6 11-5 11-3zM711 1444l10 1 37 8 21 6 18 8 2 4-7 3-22 4-31 4-24 2-13 3-13 8-10 9-5 8-6 16-4 10-9 2-25 4-9 1h-17l-40-5-28-5-10-3-2-4 7-10 10-12 7-8 7-7 14-11 8-7 14-10 13-9 5-3 7 1 16 6 14 5 14 3 11-2 15-5 11-6 8-6zM434 1316l6 1 8 2 18 4 14 5 26 8 16 7 26 15 16 10 23 14 13 8 16 9 8 5 50 25 11 4 3 4-6 4-13 4h-16l-27-9-25-11-13-6-36-15-16-8-17-7-16-5-13-5-31-8-11 1-18 6-24 12-13 8-3 2-4-1-11-22v-5l11-9 8-9 13-18 4-5 4-6zM1305 820l11 2 23 5 25 5 61 15 32 7 23 3 19 2-2 10-8 16-11 12-9 7-14 7-21 5-15 1-16-2-20-4-19-8-12-7-10-8-10-7-8-8-13-21-5-15-1-6zM953 754h18v4l-13 22-9 17-9 15-13 22-8 16-9 15-15 26-10 19-7 11-18 33-18 30-8 16-14 23-9 16-9 17-14 24-10 19-11 18-13 23-7 14-11 17-13 24-10 19-10 15-8 16-13 23-11 18-8 16-8 13-3 6-4-1-8-8-1-6 8-13 10-17 9-15 4-9 17-29 6-10 11-21 10-16 10-18 8-16 12-19 8-14 7-14 16-27 12-21 6-11 12-21 10-19 8-13 13-22 8-17 6-9 10-17 8-14 6-12 8-13 10-18 9-17 13-21 10-18 5-10 11-19 7-10zM1362 675h68l57 1-2 4-14 14-7 11-12 14-9 10-20 25-11 14-7 7-6 7-4-2-12-12-7-11-11-13-12-16-16-20-11-13-7-10-5-7 1-2zM1377 1073l8 1 48 9 31 7 34 6 1 1v18l-4 13-6 9-9 9-12 7-9 3-6 1h-17l-13-3-14-7-7-7-11-8-9-14-4-15-2-21zM1376 1325l8 1 29 6 18 3 27 6 36 6 4 2v15l-3 13-5 10-10 10-11 7-11 4-5 1h-19l-12-3-14-7-10-9-6-4-7-9-5-10-4-18-1-17v-6zM223 1308l6 2 5 3 8 16 12 25 11 15 9 10 10 7 5 2 14 2h22l22-3 8-1 8 14 4 9-1 4-7 3-17 3-20 2h-24l-24-3-10-4-18-11-13-10-11-7-14-11-9-9-4-6 1-6 9-19 5-8 5-13 5-5zM187 1386l4 1 12 9 9 7 11 17 9 15 7 12 15 45v5l-6 2h-8l-12-3-23-4-18-4-4-4-4-13-2-19 6-45 3-19zM771 1425h302l6 3 1 1v8l-5 5-63 1H814l-23-1-20-16zM965 1077l10 2 39 15 29 11 35 11 28 10 31 10 3 3v10l-2 3-3 1-13 1h-14l-22-2-14-3-16-3-36-12-10-5-14-10-14-11-4-5-10-16-3-6zM1819 1083h6v7l-7 13-5 5-2 3h-2l-2 4-7 7-17 11-21 9-27 9-30 6-30 3-12-1-10-1-3-6-2-13 17-3 20-5 37-12 21-7 29-9 26-10z"/><path fill="#006fee" d="m819 1482 5 1 7 16 2 10-3 3 1 11-8 4-19 3-105 10-4 2-10-4 1-5 13-21 8-7 8-3 53-3 18-3 11-3 13-5zM504 1095l6 1 22 15 17 14 16 13 13 12 11 9 10 9 11 9 11 10 11 9 7 6 6 8v6l-3 3-5-2-12-11-8-7-10-8v-2l-4-2-5-4-20 38-12 22 1 3 9 7 14 14 14 11 4 3-1 7-2 3-5-1-10-8-14-12-14-13-11-9-10-9-11-9-10-9-11-9-13-11-15-13-8-7-7-8-1-5 3-1 9 5 17 12 14 11 10 9 11 9 15 13 16 14 4-4 18-35 8-17 3-4-2-4-10-8-10-9-11-9-13-11-11-9-12-11-11-9-8-7-2-3zM560 998h10l18 6 10 6 17 12 32 30 12 14 11 14 8 14 7 17 2 11v10l-2 11-7 14-5 6-9 4h-18l-12-3-17-9-12-9-11-9-10-9-16-16-12-16-8-15-7-21-1-4v-19l3-10 5-9 5-4 1 3-5 10-2 8v15l4 16 8 16 10 14 9 11 10 10 8 7 13 11 18 12 14 7 12 3 10 1 9-3 2-4 3-7 1-5v-15l-4-14-8-16-8-11-8-10-12-13-14-14-8-7-16-13-15-9-12-5-10-2h-7l-11 5-3-1 1-4 7-8zM626 863l4 1 16 17 15 13 11 12 11 11 9 11 13 16 12 17 8 14 8 18 5 17 2 10v19l-3 10-7 9-8 6-6 2h-10l-14-4-15-8-12-9-11-9-12-11-16-15-7-8-12-13-9-11-9-10-6-8-1-3v-8l4 1 18 18 7 8 27 30 24 22 13 10 15 10 12 5 8 2h11l7-4 3-5 1-4v-19l-4-17-8-20-8-14-11-15-11-14-11-13-14-15-43-43 1-4zM679 773h13l13 4 11 7 10 8 10 9 5 8 1 5v7h-3l-5-9-5-6-11-9-14-9-12-5-5-1h-8l-8 3-7 8-4 8-3 12v19l3 16 5 15 8 16 7 9 9 10 10 7 8 3h14l10-5 14-12 11-9 10-5 8-2h6l11 6 7 7 5 11 1 14-2 12-5 10-9 8-9 4h-10l-8-4-4-5-2-5 1-8 3-6h4v7l5 8 6 4h9l8-6 3-6 1-6v-9l-3-10-6-9-6-5-2-1h-13l-10 5-11 11-12 9-14 7-4 1h-9l-10-3-10-6-8-7-9-12-9-17-8-24-2-13v-20l3-14 7-14 11-12 5-3zM727 681h3l-1 5-7 17-13 23-9 17v3l30 23 13 11 8 7 14 12 9 7 10 8 3-3 12-22 7-13h4l-1 6-8 16-12 20 2 4 13 10 13 13 8 7 6 3 2-6 8-20 12-22 4-7 4-4 4-1-1 5-13 24-8 14-8 19-5 10-3 1-9-7-14-12-7-7-11-9-11-10-11-9-11-10-14-11-15-13-10-8-12-11-5-4-6-7v-5l4-2 5-13 14-26 12-22zM1362 646h40l110 1-2 5-5 5-36 1h-40l-121-1-12-3-6-3-2-4zM403 1274l9 1 20 6 20 11 5 4 1 4-5 1-10-2h-13l-18 5-9 6-10 9-4 4-2-1-4-18v-10l4-13 5-4zM1192 1657h9l5 8 6 16 6 17v2l4-4 6-12 8-20 3-7h7l2 2v51l-5 1-3-1-1-42-5 17-8 16-5 9h-3l-8-18-7-21-2-3-1 42-7 1-1-1zM1000 1657h7l2 1 4 8 10 14 11 18 2 2 1-42 5-1 1 3-1 50-3 1-4-2-10-14-10-15-6-10-1 39-1 2-7-1zM744 1657h15l11 2 7 6 1 8-3 5-7 6h-2l12 17 4 7-1 3-5-2-10-14-4-5v-2l-10-2v23l-3 2-5-1zm9 5-1 1v18h12l5-3 2-4-1-8-4-3-4-1zM957 1658h16l9 6 6 10 1 5v8l-2 8-6 9-5 4-7 2h-11l-10-5-6-7-3-7v-13l3-8 5-6 7-5zm5 4-8 3-5 6-2 4-1 14 3 8 5 6 5 2h11l6-3 4-5 1-2v-22l-4-7-5-3zM789 1657h29l1 5-1 1h-20v17l17 1 1 5-1 1-18-1v19h21l1 5-2 1h-26l-2-2zM1152 1657h29l1 5-1 1h-21l1 17 18 1 1 5-5 1-15-1v19h21l1 4-1 1-23 1-6-1zM1056 1657h28l1 5-1 1h-19l-1 18h18l1 4-1 1h-18v19h21v5l-3 1h-22l-4-1zM844 1656l5 2 9 20 10 26 1 6h-4l-7-12h-24l-5 12-5 1-1-4 10-24 8-24zm0 10-4 9-4 16 2 1h18l-3-10-5-13-2-3zM1102 1658h17l4 3-1 5-10-3-9 1-3 3v6l5 5 13 7 5 6 1 2v7l-4 6-5 3-5 1h-11l-5-2-1-5 5 1h13l5-3 1-5-4-5-14-8-5-6-1-8 3-7zM901 1657l10 1 1 1v5l-14-1-9 3-5 5-3 7v15l3 5 5 4 5 2h12l6-1-1 5-5 2h-13l-9-3-7-6-4-8-1-4v-9l3-8 4-6 8-6 5-2zM1311 1657l6 1 5 10 5 13v2l5-5 11-18 3-3h4l-1 6-9 15-5 11-1 4-1 16-1 2h-5l-2-3-1-16-5-17-7-13-2-4zM1281 1657h6l1 1v47h18l1 4-1 1-10 1h-10l-6-1v-52zM712 1658h17l2 5-4 1-10-1-10 3-5 5-3 8v12l4 8 10 5h12l5-1v4l-5 3h-14l-8-3-7-8-3-9v-11l4-11 9-8zM555 1321l9 3 7 5-1 5-4 10-1 3-5-2-8-7-3-3 1-6zM596 1348l5 1 9 5 3 3-1 11-2 3-6-2-15-9v-4zM924 1657h6l1 5v41l-1 7-4 1-2-1zM1262 1657l5 1v31l-1 21-5-1v-50zM640 1377l5 1 13 7 1 4-4 6-6-1-11-6 1-9z"/></svg>